<svg xmlns="http://www.w3.org/2000/svg" width="429" height="47.94069377576819" viewBox="0 0 370.1851851851852 41.368145928412595" class="looka-1j8o68f"><defs id="SvgjsDefs3366"><linearGradient id="SvgjsLinearGradient3371"><stop id="SvgjsStop3372" stop-color="#00ddff" offset="0"></stop><stop id="SvgjsStop3373" stop-color="#ff00d4" offset="1"></stop></linearGradient><linearGradient id="SvgjsLinearGradient3374"><stop id="SvgjsStop3375" stop-color="#00ddff" offset="0"></stop><stop id="SvgjsStop3376" stop-color="#ff00d4" offset="1"></stop></linearGradient></defs><g id="SvgjsG3367" featurekey="YvLwfh-0" transform="matrix(0.7083586909198112,0,0,0.7083586909198112,-0.04594250606388606,-14.73386023069728)" fill="url(#SvgjsLinearGradient3371)"><g xmlns="http://www.w3.org/2000/svg"><path d="M30,46.7c-0.7-1.7-0.7-1.7-1.4-3.5l-2.7,0.1c-0.2-0.2-0.4-0.4-0.6-0.6l11.1-11.1l-0.2,1.1c0.8,0.4,0.8,0.4,1.7,0.9l1-0.9   c0.6,0.1,0.9,0.1,1.5,0.1l0.8,1.1c0.9-0.3,0.9-0.3,1.8-0.6l0-0.8l11.3,10.3l-1.5-0.2c-0.6,1.1-0.6,1.1-1.1,2.1l1.1,1.2   c-0.1,0.7-0.1,1.1-0.2,1.9l-1.3,1c0.4,1.1,0.4,1.1,0.7,2.3l1.7,0.1c0.5,0.6,0.7,0.9,1.2,1.4l-0.2,1.7c1.1,0.6,1.1,0.6,2.1,1.1   l1.2-1.1c0.7,0.1,1.1,0.1,1.9,0.2l1,1.3c1.1-0.4,1.1-0.4,2.3-0.7l0.1-1.7c0.6-0.5,0.9-0.7,1.4-1.2l1.7,0.2c0.6-1.1,0.6-1.1,1.1-2.1   l-1.1-1.2c0.1-0.7,0.1-1.1,0.2-1.9l1.3-1c-0.4-1.1-0.4-1.1-0.7-2.3l-1.7-0.1c-0.5-0.6-0.7-0.9-1.2-1.4l0.2-1.7   c-1.1-0.6-1.1-0.6-2.1-1.1l-1.2,1.1c-0.7-0.1-1.1-0.1-1.9-0.2l-1-1.3c-1.1,0.4-1.1,0.4-2.3,0.7l-0.1,1.6L44.4,31.1l1.1,0.2   c0.4-0.8,0.4-0.8,0.9-1.7l-0.9-1c0.1-0.6,0.1-0.9,0.1-1.5l1.1-0.8c-0.3-0.9-0.3-0.9-0.6-1.8l-1.3,0c-0.4-0.5-0.6-0.7-1-1.1L44,22   c-0.8-0.4-0.8-0.4-1.7-0.9l-1,0.9c-0.6-0.1-0.9-0.1-1.5-0.1l-0.8-1.1c-0.9,0.3-0.9,0.3-1.8,0.6l0,1.3c-0.5,0.4-0.7,0.6-1.1,1   l-1.3-0.2c-0.4,0.8-0.4,0.8-0.9,1.7l0.9,1c-0.1,0.6-0.1,0.9-0.1,1.5l-1.1,0.8c0.3,0.9,0.3,0.9,0.6,1.8l0.8,0L23.9,41.3   c0,0-0.1-0.1-0.1-0.1l0.1-2.7c-1.7-0.7-1.7-0.7-3.5-1.4l-1.8,2c-1.2,0-1.8,0-3,0l-1.8-2c-1.7,0.7-1.7,0.7-3.5,1.4l0.1,2.7   c-0.8,0.8-1.3,1.3-2.1,2.1l-2.7-0.1C5,44.9,5,44.9,4.3,46.7l2,1.8c0,1.2,0,1.8,0,3l-2,1.8C5,55,5,55,5.8,56.7l2.7-0.1   c0.8,0.8,1.3,1.3,2.1,2.1l-0.1,2.7c1.7,0.7,1.7,0.7,3.5,1.4l1.8-2c1.2,0,1.8,0,3,0l1.8,2c1.7-0.7,1.7-0.7,3.5-1.4l-0.1-2.7   c0.8-0.8,1.3-1.3,2.1-2.1l2.7,0.1c0.7-1.7,0.7-1.7,1.4-3.5l-2-1.8c0-1.2,0-1.8,0-3L30,46.7z M60,42.8c2.7,0.2,4.6,2.6,4.4,5.2   c-0.2,2.7-2.6,4.6-5.2,4.4c-2.7-0.2-4.6-2.6-4.4-5.2C55,44.5,57.4,42.5,60,42.8z M17.2,57.6c-4.2,0-7.6-3.4-7.6-7.6   s3.4-7.6,7.6-7.6s7.6,3.4,7.6,7.6S21.4,57.6,17.2,57.6z"></path><path d="M93.7,48.6l2-1.8C95,45,95,45,94.2,43.3l-2.7,0.1c-0.8-0.8-1.3-1.3-2.1-2.1l0.1-2.7c-1.7-0.7-1.7-0.7-3.5-1.4l-1.8,2   c-1.2,0-1.8,0-3,0l-1.8-2c-1.7,0.7-1.7,0.7-3.5,1.4l0.1,2.7c-0.8,0.8-1.3,1.3-2.1,2.1l-2.7-0.1C70.7,45,70.7,45,70,46.8l2,1.8   c0,1.2,0,1.8,0,3l-2,1.8c0.7,1.7,0.7,1.7,1.4,3.5l2.7-0.1c0.2,0.2,0.4,0.4,0.6,0.6L63.6,68.4l0.2-1.1c-0.8-0.4-0.8-0.4-1.7-0.9   l-1,0.9c-0.6-0.1-0.9-0.1-1.5-0.1l-0.8-1.1c-0.9,0.3-0.9,0.3-1.8,0.6l0,0.8L45.7,57.1l1.5,0.2c0.6-1.1,0.6-1.1,1.1-2.1L47.2,54   c0.1-0.7,0.1-1.1,0.2-1.9l1.3-1C48.3,50,48.3,50,48,48.8l-1.7-0.1c-0.5-0.6-0.7-0.9-1.2-1.4l0.2-1.7c-1.1-0.6-1.1-0.6-2.1-1.1   l-1.2,1.1c-0.7-0.1-1.1-0.1-1.9-0.2l-1-1.3c-1.1,0.4-1.1,0.4-2.3,0.7l-0.1,1.7c-0.6,0.5-0.9,0.7-1.4,1.2l-1.7-0.2   c-0.6,1.1-0.6,1.1-1.1,2.1l1.1,1.2c-0.1,0.7-0.1,1.1-0.2,1.9l-1.3,1c0.4,1.1,0.4,1.1,0.7,2.3l1.7,0.1c0.5,0.6,0.7,0.9,1.2,1.4   l-0.2,1.7c1.1,0.6,1.1,0.6,2.1,1.1l1.2-1.1c0.7,0.1,1.1,0.1,1.9,0.2l1,1.3c1.1-0.4,1.1-0.4,2.3-0.7l0.1-1.6l11.6,10.6l-1.1-0.2   c-0.4,0.8-0.4,0.8-0.9,1.7l0.9,1c-0.1,0.6-0.1,0.9-0.1,1.5l-1.1,0.8c0.3,0.9,0.3,0.9,0.6,1.8l1.3,0c0.4,0.5,0.6,0.7,1,1.1L56,78   c0.8,0.4,0.8,0.4,1.7,0.9l1-0.9c0.6,0.1,0.9,0.1,1.5,0.1l0.8,1.1c0.9-0.3,0.9-0.3,1.8-0.6l0-1.3c0.5-0.4,0.7-0.6,1.1-1l1.3,0.2   c0.4-0.8,0.4-0.8,0.9-1.7l-0.9-1c0.1-0.6,0.1-0.9,0.1-1.5l1.1-0.8c-0.3-0.9-0.3-0.9-0.6-1.8l-0.8,0l11.1-11.1c0,0,0.1,0.1,0.1,0.1   l-0.1,2.7c1.7,0.7,1.7,0.7,3.5,1.4l1.8-2c1.2,0,1.8,0,3,0l1.8,2c1.7-0.7,1.7-0.7,3.5-1.4l-0.1-2.7c0.8-0.8,1.3-1.3,2.1-2.1l2.7,0.1   c0.7-1.7,0.7-1.7,1.4-3.5l-2-1.8C93.7,50.4,93.7,49.8,93.7,48.6z M40,57.2c-2.7-0.2-4.6-2.6-4.4-5.2c0.2-2.7,2.6-4.6,5.2-4.4   c2.7,0.2,4.6,2.6,4.4,5.2C45,55.5,42.6,57.5,40,57.2z M82.8,57.7c-4.2,0-7.6-3.4-7.6-7.6s3.4-7.6,7.6-7.6s7.6,3.4,7.6,7.6   S87.1,57.7,82.8,57.7z"></path></g></g><g id="SvgjsG3368" featurekey="nameFeature-0" transform="matrix(1.6872865813295421,0,0,1.6872865813295421,84.325085206556,-1.0562305027717613)" fill="url(#SvgjsLinearGradient3374)"><path d="M4.84 8.6 l4.78 0 l0 -1.9 l-8.5 0 l0 0.62 l7.82 0 l0 0.72 l-8.54 0 l0 -2.06 l9.94 0 l0 3.34 l-4.78 0 l0 9.36 l-0.72 0 l0 -10.08 z M3.5 9.32 l-3.1 0 l0 -0.72 l3.82 0 l0 10.66 l2 0 l0 -9.32 l0.72 0 l0 10.06 l-3.44 0 l0 -10.68 z M18.64 20 c-1.22 0 -2.38 -0.32 -3.48 -0.96 c-2.2 -1.26 -3.56 -3.58 -3.56 -6.06 c0 -1.24 0.32 -2.4 0.96 -3.5 c1.26 -2.16 3.62 -3.52 6.08 -3.52 c1.22 0 2.4 0.32 3.5 0.94 c2.2 1.28 3.52 3.66 3.52 6.08 c0 1.22 -0.32 2.36 -0.94 3.46 c-1.28 2.2 -3.6 3.56 -6.08 3.56 z M18.64 6.66 c-1.14 0 -2.2 0.28 -3.16 0.84 c-1.94 1.12 -3.14 3.18 -3.14 5.48 c0 1.14 0.28 2.2 0.84 3.16 c1.12 1.94 3.16 3.14 5.46 3.14 c1.14 0 2.2 -0.28 3.18 -0.84 c1.94 -1.12 3.14 -3.16 3.14 -5.46 c0 -1.14 -0.28 -2.2 -0.84 -3.18 c-1.12 -1.94 -3.24 -3.14 -5.48 -3.14 z M18.64 18.64 c-1 0 -1.94 -0.26 -2.84 -0.76 c-1.78 -1.02 -2.88 -2.88 -2.88 -4.9 c0 -1.02 0.26 -1.96 0.76 -2.84 c1.02 -1.76 2.82 -2.8 4.96 -2.8 c1.08 0 2.06 0.24 2.92 0.72 c1.72 0.96 2.72 2.76 2.72 4.92 c0 1.02 -0.24 1.96 -0.72 2.82 c-0.98 1.74 -2.9 2.84 -4.92 2.84 z M18.64 8.04 c-0.9 0 -1.72 0.22 -2.48 0.66 c-1.54 0.88 -2.48 2.46 -2.48 4.28 c0 0.88 0.22 1.7 0.68 2.46 c0.88 1.54 2.44 2.5 4.28 2.5 c0.9 0 1.72 -0.22 2.48 -0.68 c1.5 -0.88 2.46 -2.52 2.46 -4.28 c0 -0.9 -0.22 -1.74 -0.66 -2.5 c-0.88 -1.52 -2.54 -2.44 -4.28 -2.44 z M18.64 17.34 c-0.78 0 -1.52 -0.2 -2.18 -0.58 c-1.34 -0.78 -2.2 -2.26 -2.2 -3.78 c0 -0.78 0.2 -1.52 0.6 -2.2 c0.78 -1.36 2.16 -2.14 3.78 -2.14 c0.78 0 1.5 0.2 2.16 0.58 c1.34 0.78 2.12 2.14 2.12 3.76 c0 0.8 -0.18 1.52 -0.54 2.18 c-0.74 1.32 -2.16 2.18 -3.74 2.18 z M18.64 9.36 c-0.64 0 -1.24 0.16 -1.8 0.48 c-1.12 0.66 -1.84 1.84 -1.84 3.14 c0 0.64 0.16 1.24 0.48 1.78 c0.64 1.12 1.8 1.8 3.16 1.8 c0.66 0 1.28 -0.16 1.82 -0.48 c1.1 -0.64 1.76 -1.82 1.76 -3.1 c0 -0.66 -0.16 -1.26 -0.48 -1.82 c-0.64 -1.12 -1.82 -1.8 -3.1 -1.8 z M33.78 20 c-1.22 0 -2.38 -0.32 -3.48 -0.96 c-2.2 -1.26 -3.56 -3.58 -3.56 -6.06 c0 -1.24 0.32 -2.4 0.96 -3.5 c1.26 -2.16 3.62 -3.52 6.08 -3.52 c1.22 0 2.4 0.32 3.5 0.94 c2.2 1.28 3.52 3.66 3.52 6.08 c0 1.22 -0.32 2.36 -0.94 3.46 c-1.28 2.2 -3.6 3.56 -6.08 3.56 z M33.78 6.66 c-1.14 0 -2.2 0.28 -3.16 0.84 c-1.94 1.12 -3.14 3.18 -3.14 5.48 c0 1.14 0.28 2.2 0.84 3.16 c1.12 1.94 3.16 3.14 5.46 3.14 c1.14 0 2.2 -0.28 3.18 -0.84 c1.94 -1.12 3.14 -3.16 3.14 -5.46 c0 -1.14 -0.28 -2.2 -0.84 -3.18 c-1.12 -1.94 -3.24 -3.14 -5.48 -3.14 z M33.78 18.64 c-1 0 -1.94 -0.26 -2.84 -0.76 c-1.78 -1.02 -2.88 -2.88 -2.88 -4.9 c0 -1.02 0.26 -1.96 0.76 -2.84 c1.02 -1.76 2.82 -2.8 4.96 -2.8 c1.08 0 2.06 0.24 2.92 0.72 c1.72 0.96 2.72 2.76 2.72 4.92 c0 1.02 -0.24 1.96 -0.72 2.82 c-0.98 1.74 -2.9 2.84 -4.92 2.84 z M33.78 8.04 c-0.9 0 -1.72 0.22 -2.48 0.66 c-1.54 0.88 -2.48 2.46 -2.48 4.28 c0 0.88 0.22 1.7 0.68 2.46 c0.88 1.54 2.44 2.5 4.28 2.5 c0.9 0 1.72 -0.22 2.48 -0.68 c1.5 -0.88 2.46 -2.52 2.46 -4.28 c0 -0.9 -0.22 -1.74 -0.66 -2.5 c-0.88 -1.52 -2.54 -2.44 -4.28 -2.44 z M33.78 17.34 c-0.78 0 -1.52 -0.2 -2.18 -0.58 c-1.34 -0.78 -2.2 -2.26 -2.2 -3.78 c0 -0.78 0.2 -1.52 0.6 -2.2 c0.78 -1.36 2.16 -2.14 3.78 -2.14 c0.78 0 1.5 0.2 2.16 0.58 c1.34 0.78 2.12 2.14 2.12 3.76 c0 0.8 -0.18 1.52 -0.54 2.18 c-0.74 1.32 -2.16 2.18 -3.74 2.18 z M33.78 9.36 c-0.64 0 -1.24 0.16 -1.8 0.48 c-1.12 0.66 -1.84 1.84 -1.84 3.14 c0 0.64 0.16 1.24 0.48 1.78 c0.64 1.12 1.8 1.8 3.16 1.8 c0.66 0 1.28 -0.16 1.82 -0.48 c1.1 -0.64 1.76 -1.82 1.76 -3.1 c0 -0.66 -0.16 -1.26 -0.48 -1.82 c-0.64 -1.12 -1.82 -1.8 -3.1 -1.8 z M41.86000000000001 5.98 l2.06 0 l0 12.7 l-0.74 0 l0 -11.98 l-0.6 0 l0 12.58 l6.58 0 l0 -1.92 l-3.26 0 l0 -0.72 l3.98 0 l0 3.36 l-8.02 0 l0 -14.02 z M44.580000000000005 5.98 l0.72 0 l0 11.96 l3.22 0 l0 0.74 l-3.94 0 l0 -12.7 z M53.64000000000001 16.7 c0.98 0.44 1.84 0.66 2.56 0.66 c0.36 0 0.58 -0.02 0.68 -0.08 c0.46 -0.12 0.78 -0.38 0.98 -0.78 l0.02 -0.04 c0.1 -0.18 0.14 -0.4 0.14 -0.68 c0 -0.14 -0.04 -0.3 -0.12 -0.5 l-0.04 -0.08 c-0.26 -0.54 -0.84 -0.9 -1.9 -1.24 l-0.2 -0.06 l-0.06 -0.02 c-1.62 -0.48 -2.66 -1.24 -3.16 -2.3 c-0.2 -0.4 -0.3 -0.84 -0.3 -1.32 c0 -0.5 0.1 -0.98 0.3 -1.48 l0.04 -0.08 c0.46 -0.92 1.2 -1.52 2.18 -1.82 c0.7 -0.1 1.1 -0.16 1.2 -0.16 c1.36 0 2.94 0.56 4.72 1.66 l0.38 -0.62 c-1.94 -1.18 -3.62 -1.76 -5.08 -1.76 c-0.58 0 -1.06 0.06 -1.4 0.2 c-1.18 0.32 -2.06 1.04 -2.64 2.18 l-0.06 0.14 c-0.24 0.58 -0.36 1.16 -0.36 1.74 c0 0.62 0.12 1.16 0.36 1.64 c0.62 1.24 1.82 2.12 3.62 2.66 l0.24 0.08 c0.82 0.26 1.3 0.54 1.48 0.86 l0.02 0.04 c0.04 0.06 0.06 0.14 0.06 0.24 c0 0.18 -0.02 0.3 -0.08 0.4 c-0.14 0.32 -0.48 0.48 -1.02 0.48 c-0.86 0 -2.1 -0.44 -3.06 -1.06 l-0.3 -0.18 l-1.76 2.84 l0.3 0.18 c1.42 0.96 3.3 1.56 4.82 1.56 c0.5 0 0.96 -0.06 1.38 -0.18 c1.18 -0.34 2.06 -1.08 2.64 -2.2 l0.08 -0.14 c0.24 -0.62 0.36 -1.2 0.36 -1.74 c0 -0.48 -0.16 -1.08 -0.46 -1.82 c-0.54 -1.08 -1.68 -1.9 -3.46 -2.46 l-0.28 -0.08 c-0.56 -0.18 -0.94 -0.36 -1.12 -0.5 c-0.24 -0.2 -0.38 -0.34 -0.44 -0.42 l-0.04 -0.22 c0 -0.2 0.04 -0.38 0.14 -0.52 c0.16 -0.3 0.32 -0.38 0.96 -0.38 c0.86 0 2.1 0.44 3.06 1.06 l0.3 0.18 l1.08 -1.72 l-0.32 -0.18 c-1.22 -0.8 -2.88 -1.36 -4.1 -1.36 c-0.54 0 -0.88 0.04 -1.06 0.14 c-0.82 0.24 -1.44 0.76 -1.84 1.54 c-0.18 0.34 -0.26 0.74 -0.26 1.24 c0 0.38 0.08 0.74 0.24 1.08 c0.42 0.9 1.36 1.56 2.82 2 l0.26 0.08 l0.54 0.2 c0.3 0.12 0.62 0.28 0.98 0.48 c0.64 0.38 0.96 0.92 0.96 1.64 c0 0.4 -0.1 0.78 -0.28 1.12 c-0.42 0.74 -1.14 1.12 -2.14 1.12 c-0.68 0 -1.64 -0.26 -2.88 -0.76 l-0.34 0.58 l-0.02 0.04 c1.14 0.58 2.22 0.86 3.26 0.86 c0.58 0 1.12 -0.12 1.6 -0.36 c0.94 -0.46 1.52 -1.42 1.52 -2.62 c0 -1.9 -1.46 -2.46 -3 -3 l-0.26 -0.08 c-1.26 -0.38 -2.04 -0.9 -2.36 -1.6 c-0.12 -0.24 -0.18 -0.5 -0.18 -0.8 c0 -0.38 0.06 -0.68 0.2 -0.94 c0.32 -0.58 0.78 -0.96 1.38 -1.14 l0.8 -0.1 c1.06 0 2.22 0.36 3.48 1.06 l-0.32 0.5 c-1.3 -0.64 -2.34 -0.96 -3.1 -0.96 c-0.38 0 -0.6 0.02 -0.7 0.08 c-0.44 0.12 -0.76 0.38 -0.98 0.8 l-0.02 0.04 c-0.1 0.18 -0.14 0.42 -0.14 0.72 c0 0.22 0.04 0.38 0.1 0.48 c0.26 0.54 0.94 0.98 2.02 1.3 l0.26 0.08 l0.5 0.16 c0.06 0.02 0.38 0.16 0.96 0.44 c0.78 0.44 1.34 1 1.66 1.66 c0.2 0.4 0.3 0.84 0.3 1.32 c0 0.58 -0.1 1.08 -0.32 1.5 l-0.04 0.08 c-0.46 0.92 -1.2 1.52 -2.18 1.82 c-0.7 0.1 -1.1 0.16 -1.2 0.16 c-1.02 0 -2.34 -0.38 -3.56 -0.96 l-0.56 -0.3 l1 -1.62 z M71.60000000000001 13.059999999999999 c0.46 -0.7 0.7 -1.58 0.7 -2.6 c0 -2.78 -1.64 -4.36 -4.46 -4.36 l-4.62 0 l0 6.02 l4.7 0 c1.06 0 1.7 -0.6 1.7 -1.66 c0 -0.56 -0.2 -1.02 -0.6 -1.4 c-0.26 -0.24 -0.7 -0.38 -1.1 -0.38 l-3.34 0 l0 2.1 l0.72 0 l0 -1.4 l2.62 0 c0.58 0 0.98 0.38 0.98 1.08 c0 0.62 -0.32 0.94 -0.98 0.94 l-4 0 l0 -4.58 l3.82 0 c2.48 0 3.86 1.26 3.86 3.64 c0 0.78 -0.16 1.46 -0.5 2.08 l-0.2 0.32 l-0.22 0.22 l0.26 0.26 l0.38 0.44 c0.24 0.3 0.36 0.92 0.36 1.88 c0 2.34 -1.4 3.6 -3.94 3.6 l-5.16 0 l0 -13.18 l-0.72 0 l0 13.9 l5.88 0 c2.9 0 4.66 -1.6 4.66 -4.32 c0 -1.04 -0.26 -1.9 -0.8 -2.6 z M68.22000000000001 18.68 c0.7 0 1.36 -0.26 1.98 -0.8 c0.58 -0.58 0.88 -1.28 0.88 -2.08 c0 -1 -0.32 -1.78 -0.98 -2.36 l-0.52 -0.38 c0.9 -0.5 1.44 -1.46 1.44 -2.72 c0 -0.54 -0.12 -1.06 -0.36 -1.52 c-0.48 -0.92 -1.34 -1.42 -2.44 -1.42 l-3.62 0 l0 0.72 l3.62 0 c0.34 0 0.66 0.1 1 0.3 c0.64 0.4 1.06 1.12 1.06 1.92 c0 1.38 -0.84 2.36 -2.12 2.36 l-4.92 0 l0 0.72 l4.92 0 c1.34 0 2.2 0.92 2.2 2.38 c0 0.8 -0.34 1.42 -1.04 1.84 c-0.34 0.2 -0.7 0.3 -1.1 0.3 l-4.3 0 l0 -3.16 l4 0 c0.7 0 1.04 0.32 1.04 0.94 c0 0.64 -0.34 0.96 -1.04 0.96 l-2.62 0 l0 -1.32 l-0.72 0 l0 2.04 l3.34 0 c0.78 0 1.3 -0.28 1.58 -0.86 c0.12 -0.22 0.18 -0.5 0.18 -0.82 c0 -1.04 -0.7 -1.68 -1.76 -1.68 l-4.7 0 l0 4.64 l5 0 z M80.44000000000001 20 c-1.22 0 -2.38 -0.32 -3.48 -0.96 c-2.2 -1.26 -3.56 -3.58 -3.56 -6.06 c0 -1.24 0.32 -2.4 0.96 -3.5 c1.26 -2.16 3.62 -3.52 6.08 -3.52 c1.22 0 2.4 0.32 3.5 0.94 c2.2 1.28 3.52 3.66 3.52 6.08 c0 1.22 -0.32 2.36 -0.94 3.46 c-1.28 2.2 -3.6 3.56 -6.08 3.56 z M80.44000000000001 6.66 c-1.14 0 -2.2 0.28 -3.16 0.84 c-1.94 1.12 -3.14 3.18 -3.14 5.48 c0 1.14 0.28 2.2 0.84 3.16 c1.12 1.94 3.16 3.14 5.46 3.14 c1.14 0 2.2 -0.28 3.18 -0.84 c1.94 -1.12 3.14 -3.16 3.14 -5.46 c0 -1.14 -0.28 -2.2 -0.84 -3.18 c-1.12 -1.94 -3.24 -3.14 -5.48 -3.14 z M80.44000000000001 18.64 c-1 0 -1.94 -0.26 -2.84 -0.76 c-1.78 -1.02 -2.88 -2.88 -2.88 -4.9 c0 -1.02 0.26 -1.96 0.76 -2.84 c1.02 -1.76 2.82 -2.8 4.96 -2.8 c1.08 0 2.06 0.24 2.92 0.72 c1.72 0.96 2.72 2.76 2.72 4.92 c0 1.02 -0.24 1.96 -0.72 2.82 c-0.98 1.74 -2.9 2.84 -4.92 2.84 z M80.44000000000001 8.04 c-0.9 0 -1.72 0.22 -2.48 0.66 c-1.54 0.88 -2.48 2.46 -2.48 4.28 c0 0.88 0.22 1.7 0.68 2.46 c0.88 1.54 2.44 2.5 4.28 2.5 c0.9 0 1.72 -0.22 2.48 -0.68 c1.5 -0.88 2.46 -2.52 2.46 -4.28 c0 -0.9 -0.22 -1.74 -0.66 -2.5 c-0.88 -1.52 -2.54 -2.44 -4.28 -2.44 z M80.44000000000001 17.34 c-0.78 0 -1.52 -0.2 -2.18 -0.58 c-1.34 -0.78 -2.2 -2.26 -2.2 -3.78 c0 -0.78 0.2 -1.52 0.6 -2.2 c0.78 -1.36 2.16 -2.14 3.78 -2.14 c0.78 0 1.5 0.2 2.16 0.58 c1.34 0.78 2.12 2.14 2.12 3.76 c0 0.8 -0.18 1.52 -0.54 2.18 c-0.74 1.32 -2.16 2.18 -3.74 2.18 z M80.44000000000001 9.36 c-0.64 0 -1.24 0.16 -1.8 0.48 c-1.12 0.66 -1.84 1.84 -1.84 3.14 c0 0.64 0.16 1.24 0.48 1.78 c0.64 1.12 1.8 1.8 3.16 1.8 c0.66 0 1.28 -0.16 1.82 -0.48 c1.1 -0.64 1.76 -1.82 1.76 -3.1 c0 -0.66 -0.16 -1.26 -0.48 -1.82 c-0.64 -1.12 -1.82 -1.8 -3.1 -1.8 z M93.94000000000001 9.84 l-0.76 1.18 l-2.82 -4.3 l0.76 0 l2.06 3.2 l0.42 -0.68 l-2.08 -3.24 l-2.48 0 l4.14 6.34 l4.04 -6.34 l-0.86 0 l-2.4 3.8 z M89.46000000000001 19.28 l-0.68 0 l4.04 -6.38 l-4.4 -6.88 l-0.86 0 l4.4 6.9 l-4.5 7.1 l2.38 -0.02 l8.48 -13.26 l0.72 0 l-4.74 7.44 l2.96 4.64 l0.86 0 l-2.98 -4.64 l5.22 -8.16 l-2.42 0 z M95.88000000000001 14.24 l3.26 5.04 l-2.28 0 l-2.96 -4.5 l-3.36 5.22 l0.86 0 l2.52 -3.9 l2.54 3.9 l4 0 l-4.08 -6.34 l-0.06 -0.1 z M116.56 6 l-7 8.18 l0.04 2.28 l0 0.86 l7.5 0 l0 1.5 l0.72 0 l0 -2.22 l-7.5 0 l-0.04 -2.16 l7.22 -8.44 l-0.94 0 z M118.5 13.42 l0.72 0 l0 -7.4 l-0.86 0 l-7.4 8.7 l0 1.3 l9.56 0 l0 0.58 l-2.06 0 l0.02 2.66 l-2.04 0 l0 -1.46 l-0.72 0 l0 2.2 l3.5 0 l-0.04 -2.68 l2.06 0 l0 -2.02 l-9.56 0 l0 -0.32 l6.82 -8 l0 6.44 z M121.24000000000001 14.68 l0 -0.72 l-3.42 0 l0 -5.14 l-1.46 1.7 l-3.54 4.16 l3.62 0 l0 -2.22 l-0.72 0.84 l0 0.66 l-1.34 0 l1.96 -2.3 l0.76 -0.88 l0 3.9 l4.14 0 z M139.88 8.02 c-1.2 -1.26 -2.74 -2 -4.24 -2 l-5.86 0 l0 0.72 l5.86 0.02 c0.94 0 1.84 0.3 2.7 0.88 c1.68 1.18 2.8 3.3 2.8 5.36 c0 1.08 -0.24 2.08 -0.74 3.02 c-1 1.86 -3.02 3.22 -4.76 3.22 l-5.14 0 l0 -11.22 l4.98 0.02 c0.72 0 1.42 0.22 2.08 0.68 c1.34 0.9 2.22 2.62 2.22 4.28 c0 1.22 -0.52 2.48 -1.46 3.46 c-0.88 0.88 -1.94 1.44 -2.82 1.44 l-2.28 0 l0.02 -7.9 l-0.7 0 l-0.02 8.26 l0 0.36 l2.98 0 c1.1 0 2.38 -0.62 3.36 -1.66 c1.06 -1.14 1.64 -2.54 1.64 -3.96 c0 -1.44 -0.56 -2.88 -1.58 -4 c-1.1 -1.1 -2.3 -1.7 -3.44 -1.7 l-5.7 0 l0 12.68 l5.86 0 c1.44 0 3 -0.74 4.18 -2 c1.3 -1.34 2.02 -3.12 2.02 -4.98 s-0.68 -3.62 -1.96 -4.98 z M135.42000000000002 17.259999999999998 c0.56 0 1.14 -0.22 1.76 -0.64 c1.22 -0.86 2 -2.3 2 -3.64 c0 -0.72 -0.18 -1.42 -0.52 -2.1 c-0.7 -1.34 -1.96 -2.18 -3.24 -2.18 l-4.3 0.02 l0.02 9.94 l0.72 0 l0 -9.24 l3.56 -0.02 c0.46 0 0.94 0.18 1.44 0.52 c1.02 0.72 1.6 1.84 1.6 3.06 c0 0.82 -0.38 1.74 -1 2.44 s-1.38 1.12 -2.04 1.12 l-1.42 0 l0 0.72 l1.42 0 z M143.78 6.039999999999999 l0.72 0 l0 13.24 l7.66 0 l0 -2 l-5.64 0 l0 -1.92 l0.72 0 l0 1.2 l5.64 0 l0 3.44 l-9.1 0 l0 -13.96 z M145.14000000000001 6.039999999999999 l7.64 0 l0 3.42 l-4.8 0 l0 -0.72 l4.08 0 l0 -1.98 l-6.2 0 l0 5.78 l4.66 0 l0 0.72 l-5.38 0 l0 -7.22 z M145.14000000000001 13.9 l6.08 0 l0 -2 l-4.7 0 l0 -4.54 l4.84 0 l0 0.72 l-4.12 0 l0 3.1 l4.7 0 l0 3.44 l-6.08 0 l0 3.32 l5.6 0 l0 0.72 l-6.32 0 l0 -4.76 z M155.22 6.74 l2.26 0 l3.48 7.24 l0.42 -0.86 l-3.44 -7.12 l-3.9 0 l6.74 14 l0.34 0 l6.42 -13.26 l0.7 0 l-6.44 13.26 l0.82 0 l6.8 -14 l-2.34 0 l-6.12 12.6 z M160.98 17.22 l5.42 -11.22 l-0.84 0 l-4.58 9.52 l-3.94 -8.14 l-0.82 0 z"></path></g></svg>